<svg xmlns='http://www.w3.org/2000/svg' class="svg-standalone-icon" width="100%" viewBox="214.96112504292927 114.99999999999997 120.0777499141414 161.82985163630926" preserveAspectRatio="none"><g data-paper-data="{&quot;fillRule&quot;:&quot;nonzero&quot;,&quot;fillRuleOriginal&quot;:&quot;nonzero&quot;,&quot;isIcon&quot;:true,&quot;iconStyle&quot;:&quot;standalone&quot;,&quot;selectedEffects&quot;:{&quot;container&quot;:&quot;&quot;,&quot;transformation&quot;:&quot;&quot;,&quot;pattern&quot;:&quot;&quot;},&quot;bounds&quot;:{&quot;x&quot;:214.96112504292927,&quot;y&quot;:114.99999999999997,&quot;width&quot;:120.0777499141414,&quot;height&quot;:161.82985163630926},&quot;iconType&quot;:&quot;initial&quot;,&quot;initialText&quot;:&quot;VE&quot;,&quot;rawInitialId&quot;:543,&quot;monogramSpecial&quot;:&quot;melted-letters&quot;,&quot;suitableAsStandaloneIcon&quot;:true}"><path fill='#5dd7f8' d="M257.19872,186.52879l-9.2243,-38.5155l-2.91294,-11.97541l-4.8549,-21.03788h-14.56469l5.17856,21.03788l2.91294,11.97541l9.54796,38.5155zM319.66504,134.41958l5.01673,-19.41958h-14.0792l-4.8549,19.41958zM290.6975,188.14709c-1.78013,7.12051 -2.26562,9.06247 -2.75111,11.32809h-60.03887v44.50321h27.99656l3.07477,11.97541h-44.01772v-119.91592h14.24103l3.07477,11.97541h-4.36941v40.1338zM335.03887,136.03788v11.97541h-85.44616l-2.91294,-11.97541zM301.86376,149.63159l-9.54796,38.5155c-1.78013,7.12051 -2.91294,11.16626 -2.91294,11.32809c-3.39843,13.91737 -7.606,29.77669 -10.8426,42.88491h12.94639l11.16626,-42.88491l2.91294,-11.32809l10.03345,-38.5155zM307.20414,188.14709l-3.07477,11.32809h20.55239v-11.32809zM275.48549,257.5721h-0.32366c-0.48549,1.78013 -0.80915,3.56026 -0.97098,5.01673h-0.48549c-0.32366,-1.94196 -0.64732,-4.20758 -1.13281,-6.63502c-0.64732,-3.56026 -1.29464,-7.606 -2.26562,-11.97541c-2.58928,-13.10822 -6.14953,-28.80571 -9.54796,-42.88491h-13.91737l10.68077,42.88491l2.91294,11.97541l5.17856,20.87605h16.8303l5.01673,-19.25775zM334.55339,243.97839v11.97541h-60.84802c-0.48549,-3.56026 -1.13281,-8.57698 -1.78013,-11.97541z" data-paper-data="{&quot;isPathIcon&quot;:true}"></path></g></svg>