<svg xmlns='http://www.w3.org/2000/svg' class="svg-standalone-icon" width="100%" viewBox="203.3033078880407 127.93353689567428 143.3933842239186 143.39338422391862" preserveAspectRatio="none"><g data-paper-data="{&quot;selectedEffects&quot;:{&quot;container&quot;:&quot;circle_simple_filled&quot;,&quot;transformation&quot;:&quot;&quot;,&quot;pattern&quot;:&quot;&quot;},&quot;initialText&quot;:&quot;VE&quot;,&quot;fillRule&quot;:&quot;nonzero&quot;,&quot;blockLetter&quot;:&quot;O&quot;,&quot;blockLetterId&quot;:0,&quot;relativeBoundsIconToContainer&quot;:{&quot;top&quot;:-0.011588950844032034,&quot;left&quot;:-0.001260240259304944},&quot;widthRatioIconToContainer&quot;:0.8938102810353409,&quot;heightRatioIconToContainer&quot;:0.8582898315492898,&quot;bounds&quot;:{&quot;x&quot;:203.3033078880407,&quot;y&quot;:127.93353689567428,&quot;width&quot;:143.3933842239186,&quot;height&quot;:143.39338422391862},&quot;isIcon&quot;:&quot;true&quot;,&quot;iconType&quot;:&quot;initial&quot;,&quot;iconStyle&quot;:&quot;standalone&quot;,&quot;rawInitialId&quot;:1087,&quot;monogramSpecial&quot;:&quot;emblem&quot;,&quot;suitableAsStandaloneIcon&quot;:true}" fill="#0093b2"><path fill='#5dd7f8' d="M203.30331,199.63023c0,-39.59699 32.09971,-71.69669 71.69669,-71.69669c39.59699,0 71.69669,32.09971 71.69669,71.69669c0,39.59699 -32.09971,71.69669 -71.69669,71.69669c-39.59699,0 -71.69669,-32.09971 -71.69669,-71.69669zM252.88823,259.50499l19.17289,-19.03192v-104.04115c-3.94736,0.14098 -7.61277,0.56391 -11.27818,1.40977v97.83816l-10.43231,10.57328c-16.91726,-8.74059 -28.33641,-26.22175 -28.33641,-46.38149c0,-11.1372 3.38345,-21.42853 9.30449,-29.88716l-9.72742,-5.63909c-6.90788,10.15035 -10.85524,22.27439 -10.85524,35.52625c0,27.49055 17.62215,50.89276 42.15218,59.63334zM279.48795,259.50499c3.6963,-0.1369 7.3926,-0.5476 10.95199,-1.36901c19.30289,-4.107 35.32019,-17.3863 43.26039,-35.04639h-12.321c-6.5712,11.6365 -17.797,20.3981 -30.9394,23.8206v-25.3265l48.46259,-27.9276c-0.2738,-3.9701 -0.9583,-7.8033 -1.9166,-11.4996l-9.99369,5.6129l-36.55229,21.2195v-59.96219c13.1424,3.4225 24.36819,12.1841 30.9394,23.8206h12.321c-7.9402,-17.66009 -23.95749,-30.9394 -43.26039,-35.04639c-3.5594,-0.8214 -7.2557,-1.2321 -10.95199,-1.36901z" data-paper-data="{&quot;isPathIcon&quot;:true}"></path></g></svg>